<?xml version="1.0" encoding="UTF-8" standalone="no"?>
<!-- Created with Inkscape (http://www.inkscape.org/) -->

<svg
   version="1.1"
   id="svg1"
   width="188.92773"
   height="112.47852"
   viewBox="0 0 188.92773 112.47852"
   xmlns="http://www.w3.org/2000/svg"
   xmlns:svg="http://www.w3.org/2000/svg">
  <defs
     id="defs1" />
  <g
     id="layer1"
     transform="translate(-226.45704,-56.785158)">
    <path
       d="m 386.46875,71.289774 v 70.744636 c 0,4.57488 0.36256,7.68037 1.08789,9.31425 0.768,1.63389 2.02801,2.45323 3.77734,2.45323 v 3.43053 c -0.72533,-0.10901 -1.83479,-0.22006 -3.32812,-0.32908 -1.45067,-0.21776 -2.92268,-0.32412 -4.41602,-0.32412 -1.45066,0 -2.92268,0.10621 -4.41601,0.32412 -1.49334,0.10902 -2.60279,0.22007 -3.32813,0.32908 v -3.43053 c 1.74934,0 2.98561,-0.81934 3.71094,-2.45323 0.768,-1.63388 1.15234,-4.73937 1.15234,-9.31425 V 90.895635 c 0,-4.901663 -0.34077,-8.497773 -1.02343,-10.785216 -0.68267,-2.396377 -1.96251,-3.595089 -3.83985,-3.595089 v -3.430526 c 1.36534,0.326777 2.6868,0.48866 3.9668,0.48866 1.23733,0 2.41215,-0.161857 3.52148,-0.48866 1.152,-0.435687 2.1961,-1.032541 3.13477,-1.79503 z"
       style="font-size:64px;font-family:'Playfair Display';-inkscape-font-specification:'Playfair Display';fill:#c1958a;fill-opacity:1;stroke-width:1.5978"
       id="path16" />
    <path
       d="m 333.92578,123.56836 v 27.71094 c 0,1.792 0.36256,3.00843 1.08789,3.64843 0.768,0.64 2.02606,0.96094 3.77539,0.96094 v 1.34375 c -0.72533,-0.0427 -1.83479,-0.0862 -3.32812,-0.1289 -1.45067,-0.0853 -2.92268,-0.12696 -4.41602,-0.12696 -1.45066,0 -2.92268,0.0416 -4.41601,0.12696 -1.49334,0.0427 -2.6028,0.0862 -3.32813,0.1289 v -1.34375 c 1.74933,0 2.98756,-0.32094 3.71289,-0.96094 0.768,-0.64 1.15235,-1.85643 1.15235,-3.64843 v -20.03125 c 0,-1.92 -0.34273,-3.32861 -1.0254,-4.22461 -0.68266,-0.93867 -1.96251,-1.40821 -3.83984,-1.40821 v -1.34375 c 1.36533,0.128 2.68875,0.19141 3.96875,0.19141 1.23733,0 2.4102,-0.0634 3.51953,-0.19141 1.152,-0.17066 2.19805,-0.40445 3.13672,-0.70312 z"
       style="font-size:64px;font-family:'Playfair Display';-inkscape-font-specification:'Playfair Display';fill:#ffffff"
       id="path15" />
    <path
       d="m 315.17383,123.56836 v 27.71094 c 0,1.792 0.36256,3.00843 1.08789,3.64843 0.768,0.64 2.02606,0.96094 3.77539,0.96094 v 1.34375 c -0.72533,-0.0427 -1.83479,-0.0862 -3.32813,-0.1289 -1.45066,-0.0853 -2.92268,-0.12696 -4.41601,-0.12696 -1.45067,0 -2.92268,0.0416 -4.41602,0.12696 -1.49333,0.0427 -2.60279,0.0862 -3.32812,0.1289 v -1.34375 c 1.74933,0 2.98756,-0.32094 3.71289,-0.96094 0.768,-0.64 1.15234,-1.85643 1.15234,-3.64843 v -20.03125 c 0,-1.92 -0.34272,-3.32861 -1.02539,-4.22461 -0.68266,-0.93867 -1.96251,-1.40821 -3.83984,-1.40821 v -1.34375 c 1.36533,0.128 2.68875,0.19141 3.96875,0.19141 1.23733,0 2.4102,-0.0634 3.51953,-0.19141 1.152,-0.17066 2.19805,-0.40445 3.13672,-0.70312 z"
       style="font-size:64px;font-family:'Playfair Display';-inkscape-font-specification:'Playfair Display';fill:#ffffff"
       id="path14" />
    <path
       d="m 330.59766,108.27148 c -1.10934,0 -2.0702,0.40613 -2.88086,1.2168 -0.81067,0.81067 -1.21485,1.76957 -1.21485,2.87891 0,1.10933 0.40418,2.07019 1.21485,2.88086 0.81066,0.81066 1.77152,1.21484 2.88086,1.21484 1.10933,0 2.06824,-0.40418 2.8789,-1.21484 0.81067,-0.81067 1.2168,-1.77153 1.2168,-2.88086 0,-1.10934 -0.40613,-2.06824 -1.2168,-2.87891 -0.81066,-0.81067 -1.76957,-1.2168 -2.8789,-1.2168 z"
       style="font-size:64px;font-family:'Playfair Display';-inkscape-font-specification:'Playfair Display';fill:#ffffff"
       id="path13" />
    <path
       d="m 311.8457,108.27148 c -1.10933,0 -2.07019,0.40613 -2.88086,1.2168 -0.81066,0.81067 -1.21484,1.76957 -1.21484,2.87891 0,1.10933 0.40418,2.07019 1.21484,2.88086 0.81067,0.81066 1.77153,1.21484 2.88086,1.21484 1.10934,0 2.06824,-0.40418 2.87891,-1.21484 0.81067,-0.81067 1.2168,-1.77153 1.2168,-2.88086 0,-1.10934 -0.40613,-2.06824 -1.2168,-2.87891 -0.81067,-0.81067 -1.76957,-1.2168 -2.87891,-1.2168 z"
       style="font-size:64px;font-family:'Playfair Display';-inkscape-font-specification:'Playfair Display';fill:#ffffff"
       id="path12" />
    <path
       d="m 369.83008,122.73633 c -1.57867,0 -3.09426,0.55473 -4.54492,1.66406 -0.90895,0.69508 -1.63115,1.46389 -2.20508,2.29297 -0.87346,-0.97251 -1.95033,-1.71685 -3.23438,-2.23047 -1.664,-0.72533 -3.56393,-1.08789 -5.69726,-1.08789 -2.09067,0 -3.98865,0.36256 -5.69532,1.08789 -1.70666,0.68267 -3.04991,1.77229 -4.03125,3.26563 -0.98133,1.49333 -1.47265,3.41309 -1.47265,5.75976 0,2.34667 0.49132,4.26643 1.47265,5.75977 0.98134,1.49333 2.32459,2.60279 4.03125,3.32812 1.16594,0.46638 2.42829,0.76044 3.77344,0.9082 -2.03977,1.05336 -3.51358,2.09394 -4.41406,3.12305 -1.19467,1.32267 -1.79102,2.70949 -1.79102,4.16016 0,1.408 0.40418,2.45405 1.21485,3.13672 0.81066,0.68266 1.85672,1.13041 3.13672,1.34375 1.28,0.21333 2.60341,0.32031 3.96875,0.32031 h 4.73437 c 2.944,0 4.90734,0.46954 5.88867,1.4082 1.024,0.896 1.53711,2.04708 1.53711,3.45508 0,1.87733 -0.5983,3.39292 -1.79297,4.54492 -1.19466,1.152 -2.7083,1.96231 -4.54296,2.43164 -1.83467,0.512 -3.71282,0.76758 -5.63282,0.76758 -2.90133,0 -5.26885,-0.53294 -7.10351,-1.59961 -1.792,-1.024 -2.68946,-2.5178 -2.68946,-4.48047 0,-1.10933 0.27737,-2.11181 0.83204,-3.00781 0.55466,-0.896 1.30156,-1.4943 2.24023,-1.79297 l -0.38281,-1.02344 c -2.048,0.55467 -3.67057,1.36498 -4.86524,2.43164 -1.19466,1.06667 -1.79101,2.34652 -1.79101,3.83985 0,1.536 0.59635,2.79601 1.79101,3.77734 1.23734,1.024 2.8599,1.7709 4.86524,2.24024 2.00533,0.46933 4.13905,0.70312 6.40039,0.70312 3.75466,0 6.88891,-0.55473 9.40625,-1.66406 2.56,-1.06667 4.48172,-2.47528 5.76172,-4.22461 1.28,-1.74933 1.91992,-3.62553 1.91992,-5.63086 0,-1.792 -0.46954,-3.24223 -1.4082,-4.35156 -0.93867,-1.10934 -2.1769,-1.9216 -3.7129,-2.4336 -1.49333,-0.512 -3.13573,-0.76757 -4.92773,-0.76757 h -8 c -2.048,0 -3.07227,-0.68155 -3.07227,-2.04688 0,-1.06667 0.53295,-1.98395 1.59961,-2.75195 0.804,-0.61104 1.75324,-1.20813 2.77539,-1.79492 2.12353,-0.003 4.01611,-0.3414 5.67383,-1.02149 1.70667,-0.72533 3.04992,-1.83479 4.03125,-3.32812 0.98134,-1.49334 1.47266,-3.4131 1.47266,-5.75977 0,-2.31013 -0.48063,-4.20238 -1.43164,-5.68555 0.49011,-0.77399 1.00101,-1.46753 1.55859,-1.99414 0.58918,-0.58918 1.57574,-1.14658 2.76758,-1.68554 -0.46644,1.20968 -0.72571,2.27056 -0.6543,3.09179 0.0853,0.98134 0.40432,1.7084 0.95899,2.17774 0.55466,0.42666 1.15297,0.63867 1.79297,0.63867 0.72533,0 1.42866,-0.25558 2.11132,-0.76758 0.72534,-0.55466 1.0879,-1.49374 1.0879,-2.8164 0,-1.23734 -0.34078,-2.15462 -1.02344,-2.75196 -0.68267,-0.64 -1.57817,-0.95898 -2.6875,-0.95898 z m -15.68164,1.79101 c 1.62133,0 2.88134,0.63993 3.77734,1.91993 0.93867,1.28 1.4082,3.62768 1.4082,7.04101 0,3.41333 -0.46953,5.75906 -1.4082,7.03906 -0.896,1.28 -2.15601,1.91993 -3.77734,1.91993 -1.57867,0 -2.83673,-0.63993 -3.77539,-1.91993 -0.93867,-1.28 -1.40821,-3.62573 -1.40821,-7.03906 0,-3.41333 0.46954,-5.76101 1.40821,-7.04101 0.93866,-1.28 2.19672,-1.91993 3.77539,-1.91993 z"
       style="font-size:64px;font-family:'Playfair Display';-inkscape-font-specification:'Playfair Display';fill:#ffffff"
       id="path6" />
    <path
       d="m 263.78125,111.91992 v 1.2793 c 0.68267,0.0427 1.42957,0.34182 2.24023,0.89648 0.81067,0.512 1.53579,1.57789 2.17579,3.19922 l 15.61523,40.25781 h 0.25586 0.25781 0.25586 0.25586 l 15.03906,-38.78515 c 0.72534,-1.92 1.53564,-3.28504 2.43164,-4.0957 0.93867,-0.81067 1.81434,-1.30199 2.625,-1.47266 v -1.2793 c -0.64,0.0427 -1.32349,0.0843 -2.04882,0.12696 -0.72534,0.0427 -1.64262,0.0644 -2.75196,0.0644 -1.10933,0 -2.30398,-0.0218 -3.58398,-0.0644 -1.28,-0.0427 -2.53806,-0.0843 -3.77539,-0.12696 v 1.2793 c 1.792,0.0427 3.15703,0.34182 4.0957,0.89648 0.93867,0.55467 1.42999,1.49374 1.47266,2.81641 0.0427,1.28 -0.38525,3.071 -1.28125,5.375 l -10.41016,27.04687 -11.60547,-30.75781 c -0.55466,-1.45066 -0.81024,-2.53834 -0.76758,-3.26367 0.0853,-0.768 0.49147,-1.3029 1.2168,-1.60156 0.768,-0.29867 1.87551,-0.46905 3.32617,-0.51172 v -1.2793 c -0.896,0.0427 -2.06886,0.0843 -3.51953,0.12696 -1.45067,0.0427 -3.00787,0.0644 -4.67187,0.0644 -1.19467,0 -2.43094,-0.0218 -3.71094,-0.0644 -1.23733,-0.0427 -2.28339,-0.0843 -3.13672,-0.12696 z"
       style="font-size:64px;font-family:'Playfair Display';-inkscape-font-specification:'Playfair Display';fill:#ffffff"
       id="path5" />
    <path
       d="m 382.48828,56.785156 c -1.10933,0 -2.07019,0.40613 -2.88086,1.216797 -0.81066,0.810667 -1.21484,1.769573 -1.21484,2.878906 0,1.109334 0.40418,2.070193 1.21484,2.88086 0.81067,0.810666 1.77153,1.214843 2.88086,1.214843 1.10933,10e-7 2.07019,-0.404177 2.88086,-1.214843 0.81067,-0.810667 1.21484,-1.771526 1.21484,-2.88086 0,-1.109333 -0.40417,-2.068239 -1.21484,-2.878906 -0.81067,-0.810667 -1.77153,-1.216797 -2.88086,-1.216797 z"
       style="font-size:64px;font-family:'Playfair Display';-inkscape-font-specification:'Playfair Display';fill:#c1958a;fill-opacity:1"
       id="path11" />
    <path
       d="m 404.24805,62.162109 v 10.6875 h 9.47265 v 1.279297 h -9.47265 v 24.767578 c 0,2.005336 0.36255,3.413946 1.08789,4.224606 0.72533,0.81067 1.72781,1.2168 3.00781,1.2168 1.28,0 2.38946,-0.51311 3.32812,-1.53711 0.93867,-1.06667 1.74898,-2.835881 2.43165,-5.310546 l 1.28125,0.31836 c -0.42667,2.474666 -1.28055,4.566766 -2.56055,6.273436 -1.23733,1.70667 -3.1571,2.55859 -5.75977,2.5586 -1.45066,0 -2.64531,-0.19218 -3.58398,-0.57618 -0.93867,-0.34133 -1.77076,-0.85249 -2.4961,-1.53515 -0.93866,-0.98134 -1.60037,-2.1542 -1.98437,-3.51953 -0.34133,-1.365336 -0.51172,-3.180077 -0.51172,-5.441411 V 74.128906 h -6.14453 v -1.279297 h 6.14453 v -9.792968 c 1.06667,-0.04267 2.09093,-0.12786 3.07227,-0.25586 0.98133,-0.128 1.87683,-0.340005 2.6875,-0.638672 z"
       style="font-size:64px;font-family:'Playfair Display';-inkscape-font-specification:'Playfair Display';fill:#c1958a;fill-opacity:1"
       id="path10" />
    <path
       d="m 332.82422,71.888672 c 1.152,0 2.15448,0.235745 3.00781,0.705078 0.896,0.469333 1.5795,1.087469 2.04883,1.855469 0.512,0.725333 0.76758,1.557427 0.76758,2.496093 0,1.066667 -0.34077,2.00574 -1.02344,2.816407 -0.64,0.810666 -1.51567,1.214843 -2.625,1.214843 -0.896,0 -1.68452,-0.277364 -2.36719,-0.832031 -0.68266,-0.597333 -1.02539,-1.429427 -1.02539,-2.496094 0,-0.810666 0.21396,-1.492208 0.64063,-2.046875 0.46933,-0.597333 0.98244,-1.066869 1.53711,-1.408203 -0.29867,-0.426666 -0.74837,-0.640625 -1.34571,-0.640625 -1.32266,0 -2.53715,0.406131 -3.64648,1.216797 -1.10933,0.768 -2.04841,1.770479 -2.81641,3.007813 -0.768,1.237333 -1.3663,2.56075 -1.79297,3.96875 -0.42666,1.365333 -0.63867,2.645177 -0.63867,3.839843 v 13.56836 c 0,2.090663 0.59635,3.497323 1.79102,4.222653 1.23733,0.68267 2.90152,1.02344 4.99218,1.02344 v 1.3457 c -0.98133,-0.0427 -2.36815,-0.0862 -4.16015,-0.1289 -1.792,-0.0853 -3.68998,-0.12696 -5.69531,-0.12696 -1.45067,0 -2.9009,0.0416 -4.35157,0.12696 -1.408,0.0427 -2.47583,0.0862 -3.20117,0.1289 v -1.3457 c 1.74934,0 2.98756,-0.31898 3.71289,-0.95898 0.768,-0.64 1.15235,-1.85644 1.15235,-3.648441 v -20.03125 c 0,-1.92 -0.34273,-3.32861 -1.02539,-4.22461 -0.68267,-0.938666 -1.96251,-1.408203 -3.83985,-1.408203 v -1.34375 c 1.36534,0.128 2.68875,0.191406 3.96875,0.191406 1.23734,0 2.4102,-0.06341 3.51953,-0.191406 1.152,-0.170666 2.19806,-0.404458 3.13672,-0.703125 v 8 c 0.46934,-1.237333 1.12909,-2.475557 1.98242,-3.71289 0.896,-1.28 1.96384,-2.345886 3.20118,-3.199219 1.23733,-0.853333 2.60237,-1.28125 4.0957,-1.28125 z"
       style="font-size:64px;font-family:'Playfair Display';-inkscape-font-specification:'Playfair Display';fill:#ffffff"
       id="path9" />
    <path
       d="m 295.19141,71.888672 c -1.96267,0 -3.73188,0.257531 -5.31055,0.769531 -1.536,0.469333 -2.79601,1.043896 -3.77734,1.726563 -0.85334,0.597333 -1.55667,1.237255 -2.11133,1.919921 -0.55467,0.682667 -0.83203,1.58012 -0.83203,2.689454 0,0.981333 0.27736,1.876833 0.83203,2.6875 0.59733,0.768 1.51462,1.152343 2.75195,1.152343 1.06667,0 1.94233,-0.299151 2.625,-0.896484 0.68267,-0.64 1.02344,-1.49388 1.02344,-2.560547 0,-1.066667 -0.29915,-1.94038 -0.89649,-2.623047 -0.59733,-0.682666 -1.30066,-1.110583 -2.11132,-1.28125 0.72533,-0.938666 1.68424,-1.556802 2.8789,-1.855469 1.23734,-0.298666 2.39037,-0.447265 3.45703,-0.447265 1.10934,0 2.11182,0.170385 3.00782,0.511719 0.896,0.298666 1.59932,0.916802 2.11132,1.855468 0.55467,0.938667 0.83203,2.303703 0.83203,4.095703 v 3.96875 c 10e-6,0.981334 -0.44774,1.769855 -1.34375,2.367188 -0.85333,0.597333 -1.96279,1.130276 -3.32812,1.599609 -1.36533,0.426667 -2.81556,0.896203 -4.35156,1.408203 -1.49334,0.469334 -2.92373,1.067636 -4.28907,1.792969 -1.36533,0.725334 -2.49462,1.68424 -3.39062,2.878906 -0.85333,1.194667 -1.28125,2.732042 -1.28125,4.609375 0,1.578665 0.32094,2.965488 0.96094,4.160158 0.68266,1.19467 1.66336,2.13179 2.94336,2.81445 1.28,0.64 2.79559,0.96094 4.54492,0.96094 2.00533,0 3.79633,-0.46954 5.375,-1.4082 1.62133,-0.93867 3.00816,-2.36711 4.16015,-4.28711 0,1.28 0.19218,2.34588 0.57618,3.19922 0.42666,0.81066 1.0448,1.4288 1.85547,1.85546 0.81066,0.42667 1.83493,0.64063 3.07226,0.64063 1.36533,0 2.45301,-0.21396 3.26367,-0.64063 0.81067,-0.46933 1.66455,-1.04389 2.56055,-1.72656 l -0.70313,-1.08789 c -0.59733,0.46933 -1.11044,0.81011 -1.5371,1.02344 -0.42667,0.21333 -0.87442,0.32031 -1.34375,0.32031 -0.68267,0 -1.19383,-0.23574 -1.53516,-0.70508 -0.29867,-0.46933 -0.44922,-1.23606 -0.44922,-2.30273 V 83.28125 c 0,-2.048 -0.17038,-3.79738 -0.51172,-5.248047 -0.34133,-1.493333 -1.06645,-2.751391 -2.17578,-3.775391 -0.81067,-0.767999 -1.83493,-1.344515 -3.07227,-1.728515 -1.23733,-0.426667 -2.73113,-0.640625 -4.48046,-0.640625 z m 4.48046,14.335937 v 12.544922 c -0.98133,1.621329 -2.09079,2.837769 -3.32812,3.648439 -1.19467,0.81067 -2.4963,1.21484 -3.9043,1.21484 -1.57866,0 -2.83672,-0.51115 -3.77539,-1.53515 -0.896,-1.024 -1.34375,-2.389042 -1.34375,-4.095707 0,-1.706667 0.34077,-3.093489 1.02344,-4.160156 0.68267,-1.066667 1.53655,-1.920547 2.56055,-2.560547 1.06666,-0.682667 2.17612,-1.259182 3.32812,-1.728516 1.152,-0.512 2.21789,-1.001369 3.19922,-1.470703 0.98133,-0.512 1.72823,-1.132088 2.24023,-1.857422 z"
       style="font-size:64px;font-family:'Playfair Display';-inkscape-font-specification:'Playfair Display';fill:#ffffff"
       id="path8" />
    <path
       d="m 369.17578,71.25 c -1.57867,0 -3.0923,0.554729 -4.54297,1.664062 -0.90878,0.694952 -1.63118,1.464062 -2.20508,2.292969 -0.87346,-0.972505 -1.95228,-1.71685 -3.23632,-2.230469 -1.664,-0.725333 -3.56198,-1.08789 -5.69532,-1.08789 -2.09066,0 -3.98864,0.362557 -5.69531,1.08789 -1.70667,0.682667 -3.05187,1.772292 -4.0332,3.265625 -0.98134,1.493334 -1.47071,3.413099 -1.47071,5.759766 10e-6,2.346667 0.48937,4.266432 1.47071,5.759766 0.98133,1.493333 2.32653,2.602791 4.0332,3.328125 1.16593,0.466373 2.42829,0.760439 3.77344,0.908203 -2.03977,1.053355 -3.51359,2.093932 -4.41406,3.123047 -1.19467,1.322666 -1.79102,2.709489 -1.79102,4.160156 0,1.408 0.40418,2.45405 1.21484,3.13672 0.81067,0.68267 1.85672,1.13042 3.13672,1.34375 1.28,0.21333 2.60147,0.32031 3.9668,0.32031 h 4.73633 c 2.944,0 4.90734,0.46954 5.88867,1.4082 1.024,0.896 1.53516,2.04708 1.53516,3.45508 0,1.87734 -0.59635,3.39292 -1.79102,4.54492 -1.19467,1.152 -2.71025,1.96231 -4.54492,2.43165 -1.83467,0.51199 -3.71086,0.76757 -5.63086,0.76757 -2.90133,0 -5.2708,-0.53294 -7.10547,-1.59961 -1.792,-1.024 -2.6875,-2.5178 -2.6875,-4.48046 0,-1.10934 0.27737,-2.11182 0.83203,-3.00782 0.55467,-0.896 1.30157,-1.4943 2.24024,-1.79297 l -0.38477,-1.02343 c -2.048,0.55466 -3.66861,1.36497 -4.86328,2.43164 -1.19467,1.06666 -1.79102,2.34651 -1.79102,3.83984 0,1.536 0.59635,2.79601 1.79102,3.77734 1.23733,1.024 2.85795,1.77091 4.86328,2.24024 2.00533,0.46933 4.13906,0.70312 6.40039,0.70312 3.75467,0 6.89087,-0.55473 9.4082,-1.66406 2.56,-1.06667 4.47977,-2.47527 5.75977,-4.22461 1.28,-1.74933 1.91992,-3.62552 1.91992,-5.63086 0,-1.792 -0.46953,-3.24223 -1.4082,-4.35156 -0.93867,-1.10933 -2.17494,-1.921596 -3.71094,-2.433594 -1.49333,-0.512 -3.13573,-0.767578 -4.92773,-0.767578 h -8 c -2.048,0 -3.07227,-0.681542 -3.07227,-2.046875 0,-1.066667 0.53294,-1.983953 1.59961,-2.751953 0.80397,-0.611017 1.75327,-1.206191 2.77539,-1.792969 2.12356,-0.0026 4.01413,-0.343336 5.67188,-1.023437 1.70666,-0.725334 3.05187,-1.834792 4.0332,-3.328125 0.98133,-1.493334 1.4707,-3.413099 1.4707,-5.759766 0,-2.310128 -0.47867,-4.202385 -1.42969,-5.685547 0.49012,-0.773997 1.00101,-1.467532 1.5586,-1.99414 0.5893,-0.589306 1.57535,-1.146485 2.76758,-1.685547 -0.4665,1.209771 -0.72767,2.270517 -0.65625,3.091797 0.0853,0.981333 0.40627,1.708401 0.96093,2.177734 0.55467,0.426667 1.15102,0.638672 1.79102,0.638672 0.72533,0 1.43061,-0.255578 2.11328,-0.767578 0.72533,-0.554667 1.08789,-1.49374 1.08789,-2.816407 0,-1.237333 -0.34272,-2.154619 -1.02539,-2.751953 -0.68267,-0.64 -1.57817,-0.958984 -2.6875,-0.958984 z m -15.67969,1.791016 c 1.62134,0 2.87939,0.639921 3.77539,1.919921 0.93867,1.280001 1.40821,3.627683 1.40821,7.041016 0,3.413333 -0.46954,5.759063 -1.40821,7.039063 -0.896,1.28 -2.15405,1.919921 -3.77539,1.919921 -1.57866,10e-7 -2.83672,-0.639921 -3.77539,-1.919921 -0.93866,-1.28 -1.4082,-3.62573 -1.4082,-7.039063 0,-3.413333 0.46954,-5.761016 1.4082,-7.041016 0.93867,-1.279999 2.19673,-1.919921 3.77539,-1.919921 z"
       style="font-size:64px;font-family:'Playfair Display';-inkscape-font-specification:'Playfair Display';fill:#ffffff"
       id="path7" />
    <path
       d="m 226.45703,60.433594 v 1.279297 c 1.45067,0.04267 2.53834,0.213052 3.26367,0.511718 0.768,0.256 1.27916,0.76911 1.53516,1.53711 0.256,0.725333 0.38476,1.876411 0.38476,3.455078 v 31.105469 c 10e-6,1.535998 -0.12876,2.750484 -0.38476,3.646484 -0.256,0.85333 -0.76716,1.47342 -1.53516,1.85742 -0.72533,0.34134 -1.813,0.55334 -3.26367,0.63867 v 1.28125 c 0.72533,-0.0853 1.62083,-0.1289 2.6875,-0.1289 1.10933,-0.0427 2.19701,-0.0645 3.26367,-0.0645 1.10934,0 2.2822,0.0218 3.51953,0.0645 1.23734,0 2.23982,0.0436 3.00782,0.1289 v -1.28125 c -1.664,-0.0853 -2.92206,-0.29733 -3.77539,-0.63867 -0.81067,-0.384 -1.3654,-1.00409 -1.66407,-1.85742 -0.256,-0.896 -0.38476,-2.110486 -0.38476,-3.646484 V 64.529297 l 16.1289,41.535153 h 1.02344 L 265.6875,64.640625 v 34.320312 c 0,1.536003 -0.12681,2.689033 -0.38281,3.457033 -0.256,0.768 -0.76911,1.27915 -1.53711,1.53516 -0.72534,0.25599 -1.81301,0.42638 -3.26367,0.51171 v 1.28125 c 0.896,-0.0853 2.06886,-0.1289 3.51953,-0.1289 1.45066,-0.0427 3.00787,-0.0645 4.67187,-0.0645 1.49334,0 2.96535,0.0218 4.41602,0.0645 1.49333,0 2.73156,0.0436 3.71289,0.1289 v -1.28125 c -1.45067,-0.0853 -2.56013,-0.25571 -3.32813,-0.51171 -0.72533,-0.25601 -1.21665,-0.76716 -1.47265,-1.53516 -0.256,-0.768 -0.38282,-1.92103 -0.38282,-3.457033 v -31.74414 c 0,-1.578667 0.12682,-2.729745 0.38282,-3.455078 0.256,-0.768 0.74732,-1.28111 1.47265,-1.53711 0.768,-0.298666 1.87746,-0.469052 3.32813,-0.511718 v -1.279297 c -0.98133,0.04267 -2.21956,0.08429 -3.71289,0.126953 -1.45067,0.04267 -2.92268,0.06445 -4.41602,0.06445 h -1.53515 -1.47266 L 251.92383,97.513672 237.84766,60.433594 c -0.68267,0.04267 -1.5346,0.08429 -2.5586,0.126953 -0.98133,0.04267 -1.94219,0.06445 -2.88086,0.06445 -1.06666,0 -2.15434,-0.02179 -3.26367,-0.06445 -1.06667,-0.04267 -1.96217,-0.08429 -2.6875,-0.126953 z"
       style="font-size:64px;font-family:'Playfair Display';-inkscape-font-specification:'Playfair Display';fill:#ffffff"
       id="path4" />
  </g>
</svg>
